<svg width="224" height="70" viewBox="0 0 224 70" fill="none" xmlns="http://www.w3.org/2000/svg">
<g clip-path="url(#clip0_85_218)">
<path d="M27.9455 24.9773V32.4545H45.9903C45.5112 36.5909 44.074 39.7727 41.8384 41.8409C39.2834 44.3864 35.1315 47.25 27.9455 47.25C16.927 47.25 8.3038 38.3409 8.3038 27.3636C8.3038 16.3864 16.7673 7.47727 27.9455 7.47727C33.854 7.47727 38.3252 9.86364 41.519 12.8864L46.7887 7.63636C42.3175 3.34091 36.2493 0 27.9455 0C12.7751 0 0 12.25 0 27.3636C0 42.4773 12.7751 54.7273 27.9455 54.7273C36.0896 54.7273 42.3175 52.0227 47.1081 47.0909C52.0585 42.1591 53.6553 35.1591 53.6553 29.5909C53.6553 27.8409 53.4957 26.25 53.336 24.9773H27.9455Z" fill="#4285F4"/>
<path d="M76.0116 18.7729C66.2706 18.7729 58.1265 26.2502 58.1265 36.432C58.1265 46.6139 66.1109 54.0911 76.0116 54.0911C85.9123 54.0911 93.8967 46.7729 93.8967 36.5911C93.8967 26.2502 85.9123 18.7729 76.0116 18.7729ZM76.0116 47.2502C70.5822 47.2502 65.9512 42.7957 65.9512 36.5911C65.9512 30.2275 70.5822 25.932 76.0116 25.932C81.441 25.932 86.072 30.2275 86.072 36.5911C86.072 42.7957 81.441 47.2502 76.0116 47.2502Z" fill="#EA4335"/>
<path d="M163.361 22.7502H163.042C161.285 20.682 157.932 18.7729 153.62 18.7729C144.678 18.7729 137.013 26.4093 137.013 36.432C137.013 46.2957 144.678 54.0911 153.62 54.0911C157.932 54.0911 161.285 52.182 163.042 50.1139H163.361V52.6593C163.361 59.3411 159.688 63.0002 153.94 63.0002C149.149 63.0002 146.275 59.6593 144.997 56.6366L138.29 59.5002C140.206 64.1139 145.476 70.0002 154.099 70.0002C163.202 70.0002 171.026 64.5911 171.026 51.5457V19.7275H163.681V22.7502H163.361ZM154.419 47.2502C148.989 47.2502 144.997 42.6366 144.997 36.5911C144.997 30.3866 149.149 25.932 154.419 25.932C159.688 25.932 163.84 30.5457 163.84 36.7502C164 42.7957 159.848 47.2502 154.419 47.2502Z" fill="#4285F4"/>
<path d="M115.774 18.7729C106.033 18.7729 97.8892 26.2502 97.8892 36.432C97.8892 46.6139 105.874 54.0911 115.774 54.0911C125.675 54.0911 133.659 46.7729 133.659 36.5911C133.659 26.2502 125.675 18.7729 115.774 18.7729ZM115.774 47.2502C110.345 47.2502 105.714 42.7957 105.714 36.5911C105.714 30.2275 110.345 25.932 115.774 25.932C121.204 25.932 125.835 30.2275 125.835 36.5911C125.835 42.7957 121.204 47.2502 115.774 47.2502Z" fill="#FBBC05"/>
<path d="M176.935 0.79541H184.6V54.25H176.935V0.79541Z" fill="#34A853"/>
<path d="M208.234 47.2502C204.241 47.2502 201.527 45.5002 199.611 41.8411L223.404 32.1366L222.606 30.0684C221.168 26.0911 216.537 18.7729 207.435 18.7729C198.333 18.7729 190.668 25.932 190.668 36.432C190.668 46.2957 198.173 54.0911 208.234 54.0911C216.378 54.0911 221.009 49.1593 223.085 46.2957L217.017 42.3184C214.941 45.3411 212.226 47.2502 208.234 47.2502ZM207.755 25.4548C210.948 25.4548 213.663 27.0457 214.462 29.2729L198.493 35.9548C198.333 28.6366 203.762 25.4548 207.755 25.4548Z" fill="#EA4335"/>
</g>
<defs>
<clipPath id="clip0_85_218">
<rect width="223.404" height="70" fill="white"/>
</clipPath>
</defs>
</svg>
