<svg width="329" height="70" viewBox="0 0 329 70" fill="none" xmlns="http://www.w3.org/2000/svg">
<g clip-path="url(#clip0_85_212)">
<path d="M115.942 40.3176L113.987 45.8525H113.824C113.498 44.6044 112.9 42.7052 111.922 40.4261L101.437 14.1083H91.1699V56.054H97.9606V30.1703C97.9606 28.5424 97.9606 26.6974 97.9063 24.4184C97.8519 23.2788 97.7433 22.4106 97.689 21.7595H97.8519C98.1779 23.3874 98.5582 24.5812 98.8298 25.3408L111.433 55.9455H116.214L128.709 25.0695C128.98 24.3641 129.252 22.9532 129.524 21.7595H129.687C129.524 24.8525 129.415 27.6199 129.361 29.3021V55.8912H136.586V13.9998H126.699L115.942 40.3176ZM143.431 25.8292H150.493V55.8912H143.431V25.8292ZM147.016 13.1315C145.821 13.1315 144.843 13.5657 144.028 14.3253C143.214 15.085 142.779 16.0618 142.779 17.2556C142.779 18.3951 143.214 19.3719 144.028 20.1315C144.843 20.8912 145.821 21.2711 147.016 21.2711C148.212 21.2711 149.244 20.837 150.004 20.1315C150.819 19.3719 151.254 18.3951 151.254 17.2556C151.254 16.116 150.819 15.1393 150.004 14.3253C149.298 13.5657 148.266 13.1315 147.016 13.1315ZM175.537 25.5579C174.233 25.2866 172.875 25.1238 171.571 25.1238C168.366 25.1238 165.433 25.8292 162.988 27.2401C160.543 28.6509 158.588 30.6044 157.338 33.0463C156.034 35.5424 155.382 38.4184 155.382 41.7284C155.382 44.6044 156.034 47.1548 157.284 49.4881C158.533 51.7672 160.272 53.6122 162.608 54.8602C164.835 56.1083 167.443 56.7595 170.376 56.7595C173.744 56.7595 176.624 56.054 178.905 54.7517L178.96 54.6974V48.1858L178.688 48.4029C177.656 49.1626 176.461 49.8137 175.266 50.1936C174.016 50.6277 172.875 50.8447 171.897 50.8447C169.072 50.8447 166.845 50.0308 165.27 48.2401C163.64 46.5036 162.825 44.116 162.825 41.1315C162.825 38.0385 163.64 35.5967 165.324 33.806C167.008 32.0153 169.235 31.0928 171.952 31.0928C174.233 31.0928 176.569 31.8525 178.688 33.3719L178.96 33.5889V26.6974L178.905 26.6432C177.982 26.2633 176.95 25.8292 175.537 25.5579ZM198.843 25.3408C197.104 25.3408 195.475 25.8835 194.062 27.023C192.867 27.9998 192.052 29.4106 191.346 31.0928H191.291V25.8292H184.229V55.8912H191.291V40.5346C191.291 37.93 191.835 35.7595 193.03 34.1858C194.225 32.5579 195.746 31.7439 197.593 31.7439C198.245 31.7439 198.897 31.9067 199.712 32.0153C200.472 32.2323 201.016 32.4494 201.396 32.7207L201.668 32.9377V25.8835L201.505 25.8292C201.016 25.5036 200.038 25.3408 198.843 25.3408ZM218.074 25.1781C213.13 25.1781 209.165 26.6432 206.394 29.5191C203.569 32.3951 202.211 36.3564 202.211 41.3486C202.211 46.0153 203.623 49.8137 206.34 52.5812C209.056 55.2943 212.75 56.7052 217.368 56.7052C222.203 56.7052 226.06 55.2401 228.83 52.3098C231.655 49.3796 233.013 45.4726 233.013 40.6432C233.013 35.868 231.71 32.0695 229.048 29.3021C226.494 26.5346 222.746 25.1781 218.074 25.1781ZM223.724 48.2943C222.42 49.9765 220.356 50.7905 217.802 50.7905C215.249 50.7905 213.185 49.9765 211.718 48.1858C210.251 46.5036 209.545 44.0618 209.545 40.9688C209.545 37.7672 210.305 35.3253 211.718 33.5889C213.185 31.8525 215.195 30.9843 217.748 30.9843C220.247 30.9843 222.203 31.7982 223.615 33.4804C225.028 35.1626 225.788 37.6044 225.788 40.806C225.679 44.0618 225.082 46.6122 223.724 48.2943ZM248.768 38.3098C246.54 37.3874 245.128 36.6819 244.476 36.085C243.933 35.5424 243.661 34.7827 243.661 33.806C243.661 32.992 243.987 32.1781 244.802 31.6354C245.617 31.0928 246.54 30.8215 247.898 30.8215C249.094 30.8215 250.343 31.0385 251.538 31.3641C252.733 31.6897 253.82 32.1781 254.689 32.8292L254.961 33.0463V26.4261L254.798 26.3719C253.983 26.0463 252.896 25.7207 251.593 25.4494C250.289 25.2323 249.094 25.1238 248.116 25.1238C244.748 25.1238 241.977 25.9377 239.804 27.7284C237.631 29.4106 236.599 31.6897 236.599 34.3486C236.599 35.7595 236.816 37.0075 237.305 38.0385C237.794 39.0695 238.5 40.0463 239.478 40.8602C240.456 41.6199 241.868 42.4881 243.824 43.3021C245.454 44.0075 246.703 44.5502 247.464 44.9843C248.224 45.4184 248.713 45.9067 249.094 46.2866C249.365 46.7207 249.528 47.2633 249.528 47.9688C249.528 49.9765 248.007 50.9533 244.911 50.9533C243.715 50.9533 242.466 50.7362 240.999 50.2478C239.532 49.7595 238.174 49.054 237.033 48.2401L236.762 48.023V54.9145L236.925 54.9688C237.957 55.4571 239.206 55.7827 240.728 56.1626C242.249 56.4339 243.607 56.6509 244.802 56.6509C248.442 56.6509 251.43 55.837 253.548 54.0463C255.721 52.3098 256.862 50.085 256.862 47.2091C256.862 45.2013 256.319 43.4106 255.124 42.054C253.548 40.7517 251.593 39.3951 248.768 38.3098ZM275.496 25.1781C270.552 25.1781 266.586 26.6432 263.816 29.5191C261.045 32.3951 259.633 36.3564 259.633 41.3486C259.633 46.0153 261.045 49.8137 263.761 52.5812C266.478 55.2943 270.172 56.7052 274.79 56.7052C279.624 56.7052 283.482 55.2401 286.252 52.3098C289.077 49.3796 290.435 45.4726 290.435 40.6432C290.435 35.868 289.131 32.0695 286.469 29.3021C283.916 26.5346 280.168 25.1781 275.496 25.1781ZM281.091 48.2943C279.787 49.9765 277.723 50.7905 275.17 50.7905C272.562 50.7905 270.552 49.9765 269.085 48.1858C267.619 46.5036 266.912 44.0618 266.912 40.9688C266.912 37.7672 267.673 35.3253 269.085 33.5889C270.552 31.8525 272.562 30.9843 275.115 30.9843C277.56 30.9843 279.57 31.7982 280.983 33.4804C282.395 35.1626 283.156 37.6044 283.156 40.806C283.156 44.0618 282.449 46.6122 281.091 48.2943ZM328.191 31.6354V25.8292H321.075V16.93L320.857 16.9843L314.121 18.992L313.958 19.0463V25.8292H303.31V22.0308C303.31 20.2943 303.745 18.9377 304.505 18.0695C305.266 17.2013 306.407 16.7672 307.819 16.7672C308.797 16.7672 309.829 16.9843 310.97 17.4726L311.242 17.6354V11.5036L311.079 11.4494C310.101 11.1238 308.797 10.9067 307.113 10.9067C304.994 10.9067 303.147 11.3951 301.463 12.2091C299.779 13.1315 298.53 14.3796 297.606 16.0618C296.683 17.6897 296.194 19.5346 296.194 21.6509V25.8292H291.25V31.5812H296.194V55.8912H303.31V31.6354H313.958V47.1005C313.958 53.4494 316.946 56.6509 322.922 56.6509C323.9 56.6509 324.932 56.4881 325.91 56.3253C326.942 56.1083 327.702 55.837 328.137 55.6199L328.191 55.5657V49.7595L327.92 49.9765C327.485 50.2478 327.105 50.4649 326.453 50.6277C325.91 50.7905 325.421 50.8447 325.04 50.8447C323.628 50.8447 322.65 50.5191 321.944 49.7052C321.292 48.9455 320.966 47.6974 320.966 45.8525V31.6354H328.191Z" fill="#737373"/>
<path d="M0.120605 0H33.422V33.2636H0.120605V0Z" fill="#F25022"/>
<path d="M36.8989 0H70.2004V33.2636H36.8989V0Z" fill="#7FBA00"/>
<path d="M0.120605 36.7363H33.422V69.9999H0.120605V36.7363Z" fill="#00A4EF"/>
<path d="M36.8989 36.7363H70.2004V69.9999H36.8989V36.7363Z" fill="#FFB900"/>
</g>
<defs>
<clipPath id="clip0_85_212">
<rect width="328.125" height="70" fill="white" transform="translate(0.120605)"/>
</clipPath>
</defs>
</svg>
