<svg width="287" height="70" viewBox="0 0 287 70" fill="none" xmlns="http://www.w3.org/2000/svg">
<g clip-path="url(#clip0_85_182)">
<path d="M113.642 25.2319H122.677V53.6499H113.642V25.2319Z" fill="#E60023"/>
<mask id="mask0_85_182" style="mask-type:luminance" maskUnits="userSpaceOnUse" x="0" y="0" width="287" height="70">
<path d="M0.961426 0H287V70H0.961426V0Z" fill="white"/>
</mask>
<g mask="url(#mask0_85_182)">
<path d="M124.563 25.2314H133.265V29.1167H133.431C135.537 26.0638 138.253 24.3989 142.189 24.3989C148.396 24.3989 152.054 28.8392 152.054 35.1666V53.6494H143.02V36.9984C143.02 34.001 141.523 31.9472 138.586 31.9472C135.593 31.9472 133.597 34.4451 133.597 37.9417V53.6494H124.563V25.2314Z" fill="#E60023"/>
<path d="M123.578 17.6285C123.578 14.6311 121.152 12.2015 118.159 12.2015C115.166 12.2015 112.74 14.6311 112.74 17.6285C112.74 20.6256 115.166 23.0552 118.159 23.0552C121.152 23.0552 123.578 20.6256 123.578 17.6285Z" fill="#E60023"/>
<path d="M215.595 24.8212C215.337 24.7979 215.042 24.7876 214.696 24.7876C211.259 24.7876 208.932 26.2861 206.936 29.6719H206.77V25.2317H198.124V53.6494H207.158V40.8837C207.158 34.9687 210.429 32.2277 215.595 32.706V24.8212Z" fill="#E60023"/>
<path d="M259.931 35.7216C256.328 35.0558 253.114 34.7783 253.114 32.7802C253.114 31.0039 254.832 30.1714 257.049 30.1714C259.543 30.1714 261.261 30.9484 261.594 33.5018H269.908C269.464 27.8959 265.141 24.399 257.105 24.399C250.398 24.399 244.855 27.5072 244.855 33.5018C244.855 40.1618 250.121 41.4941 255.054 42.3268C258.823 42.9929 262.259 43.2704 262.259 45.8234C262.259 47.6552 260.541 48.6542 257.825 48.6542C255.1 48.6542 253.298 47.4998 252.746 45.1576H244.137C244.77 50.9995 249.891 54.5376 257.88 54.5376C265.307 54.5376 270.794 51.3184 270.794 45.1022C270.794 37.8308 264.919 36.5543 259.931 35.7216Z" fill="#E60023"/>
<path d="M229.61 30.8371C232.548 30.8371 234.654 33.0017 234.986 36.3878H223.79C224.4 33.0017 226.174 30.8371 229.61 30.8371ZM230.109 47.9876C226.395 47.9876 224.289 45.6012 223.735 41.7713H244.132C244.187 35.9991 242.525 31.0591 239.143 27.9511C236.705 25.731 233.49 24.3987 229.443 24.3987C220.797 24.3987 214.867 30.8925 214.867 39.3849C214.867 47.9876 220.631 54.4819 229.998 54.4819C233.6 54.4819 236.483 53.5383 238.866 51.8732C241.36 50.1526 243.023 47.7104 243.633 45.1574H234.82C234.044 46.9334 232.492 47.9876 230.109 47.9876Z" fill="#E60023"/>
<path d="M286.706 46.9483C286.287 46.9648 285.725 46.9891 285.209 46.9891C283.269 46.9891 282.05 46.4339 282.05 44.2138V30.8928H286.706V25.2315H282.05V16.2398H273.237V25.2315H270.464V30.8928H273.237V46.1564C273.237 52.2621 277.006 53.9824 282.271 53.9824C284.28 53.9824 285.799 53.8318 286.706 53.6545V46.9483Z" fill="#E60023"/>
<path d="M168.189 46.9611C167.828 46.9751 167.412 46.9891 167.023 46.9891C165.084 46.9891 163.864 46.4339 163.864 44.2138V30.8928H168.189V25.2315H163.864V16.2398H155.051V25.2315H152.113V30.8928H155.051V46.1564C155.051 52.2621 158.82 53.9824 164.086 53.9824C165.868 53.9824 167.262 53.8637 168.189 53.7133V46.9611Z" fill="#E60023"/>
<path d="M187.867 36.3878C187.535 33.002 185.428 30.8371 182.491 30.8371C179.054 30.8371 177.281 33.002 176.671 36.3878H187.867ZM167.748 39.3849C167.748 30.8928 173.678 24.399 182.325 24.399C186.371 24.399 189.585 25.731 192.024 27.9511C195.405 31.0594 197.068 35.9991 197.012 41.7716H176.616C177.17 45.6012 179.276 47.9879 182.99 47.9879C185.373 47.9879 186.925 46.9334 187.701 45.1574H196.514C195.904 47.7104 194.241 50.1526 191.747 51.8735C189.364 53.5383 186.482 54.4819 182.879 54.4819C173.512 54.4819 167.748 47.9879 167.748 39.3849Z" fill="#E60023"/>
<path d="M97.9521 32.6136C101.5 32.6136 103.495 30.5043 103.495 27.3403C103.495 24.1769 101.444 22.2342 97.9521 22.2342H91.0235V32.6136H97.9521ZM81.877 13.9642H97.5657C102.388 13.9642 105.935 15.2961 108.374 17.6274C110.923 20.0138 112.365 23.3999 112.365 27.396C112.365 35 107.099 40.3841 98.9512 40.3841H91.0235V53.6494H81.877V13.9642Z" fill="#E60023"/>
<path d="M69.4751 35C69.4751 53.8647 54.2035 69.1577 35.3652 69.1577C16.527 69.1577 1.25537 53.8647 1.25537 35C1.25537 16.135 16.527 0.842209 35.3652 0.842209C54.2035 0.842209 69.4751 16.135 69.4751 35Z" fill="white"/>
<path d="M35.3647 0.841721C16.5265 0.841721 1.25488 16.1348 1.25488 34.9995C1.25488 49.4704 10.2457 61.8411 22.9342 66.8181C22.6362 64.1156 22.3666 59.9592 23.0525 57.0089C23.6724 54.343 27.0523 40.0302 27.0523 40.0302C27.0523 40.0302 26.032 37.984 26.032 34.9589C26.032 30.2092 28.7811 26.6633 32.2041 26.6633C35.1142 26.6633 36.5198 28.8512 36.5198 31.4748C36.5198 34.4056 34.6565 38.7873 33.6949 42.8479C32.8913 46.2476 35.3975 49.0202 38.746 49.0202C44.8085 49.0202 49.4687 42.6188 49.4687 33.3786C49.4687 25.2 43.6003 19.4819 35.2208 19.4819C25.5153 19.4819 19.8186 26.7717 19.8186 34.3054C19.8186 37.2412 20.9479 40.3892 22.3571 42.1006C22.6359 42.4388 22.6767 42.735 22.5937 43.0803C22.3348 44.1591 21.7593 46.4792 21.6464 46.9541C21.4976 47.5793 21.152 47.712 20.5056 47.4108C16.2455 45.425 13.5819 39.1877 13.5819 34.178C13.5819 23.403 21.3998 13.5075 36.1197 13.5075C47.9524 13.5075 57.1478 21.9512 57.1478 33.2355C57.1478 45.0075 49.7357 54.4816 39.4479 54.4816C35.9914 54.4816 32.742 52.6834 31.6298 50.5594C31.6298 50.5594 29.9194 57.0811 29.5047 58.6794C28.7347 61.6462 26.6558 65.3652 25.2653 67.634C28.4568 68.6236 31.8484 69.1572 35.3647 69.1572C54.2033 69.1572 69.4749 53.8642 69.4749 34.9995C69.4749 16.1348 54.2033 0.841721 35.3647 0.841721Z" fill="#E60023"/>
</g>
</g>
<defs>
<clipPath id="clip0_85_182">
<rect width="286.038" height="70" fill="white" transform="translate(0.961426)"/>
</clipPath>
</defs>
</svg>
