<svg width="154" height="126" viewBox="0 0 154 126" fill="none" xmlns="http://www.w3.org/2000/svg">
<path d="M86.8 125.2V80.4C86.8 60.4 92.2667 42.9333 103.2 28C114.133 12.8 130.933 3.46665 153.6 0V29.2C140.533 30.8 131.867 35.0667 127.6 42C123.333 48.9333 121.2 58.1333 121.2 69.6L97.6 64.8H152.8V125.2H86.8ZM0 125.2V80.4C0 60.4 5.46667 42.9333 16.4 28C27.3333 12.8 44.1333 3.46665 66.8 0V29.2C53.7333 30.8 45.0667 35.0667 40.8 42C36.5333 48.9333 34.4 58.1333 34.4 69.6L10.8 64.8H66V125.2H0Z" fill="white"/>
</svg>
